{"title":"Hitchcock 2012 WEBRip Xvid AC3-VoXHD","uid":8178747,"size":1421352145,"categoryP":"video","categoryS":"movies","magnet":"?xt=urn:btih:eb6ef2bed3d976f33da677270b26ed20e86afc25&amp;dn=Hitchcock+2012+WEBRip+Xvid+AC3-VoXHD&amp;tr=udp%3A%2F%2Ftracker.openbittorrent.com%3A80&amp;tr=udp%3A%2F%2Fopen.demonii.com%3A1337&amp;tr=udp%3A%2F%2Ftracker.coppersurfer.tk%3A6969&amp;tr=udp%3A%2F%2Fexodus.desync.com%3A6969","seeders":1,"leechers":0,"uploader":"juggs99","files":2,"time":1361582803,"description":" &lt;a href=&quot;http://www.imdb.com/title/tt0975645/&quot; rel=&quot;nofollow&quot; target=&quot;_NEW&quot;&gt;http://www.imdb.com/title/tt0975645/&lt;/a&gt;\n\nQuote:\nVideo\nID                                       : 1\nFormat                                   : MPEG-4 Visual\nFormat profile                           : Advanced Simple@L5\nFormat settings, BVOP                    : No\nFormat settings, QPel                    : No\nFormat settings, GMC                     : No warppoints\nFormat settings, Matrix                  : Custom\nCodec ID                                 : V_MS/VFW/FOURCC / XVID\nCodec ID/Hint                            : XviD\nDuration                                 : 1h 38mn\nBit rate                                 : 1 689 Kbps\nWidth                                    : 720 pixels\nHeight                                   : 304 pixels\nDisplay aspect ratio                     : 2.35:1\nFrame rate mode                          : Constant\nFrame rate                               : 23.976 fps\nColor space                              : YUV\nChroma subsampling                       : 4:2:0\nBit depth                                : 8 bits\nScan type                                : Progressive\nCompression mode                         : Lossy\nBits/(Pixel*Frame)                       : 0.322\nStream size                              : 1.16 GiB (88%)\nWriting library                          : XviD 1.2.1 (UTC 2008-12-04)\nDefault                                  : Yes\nForced                                   : No\n\nAudio\nID                                       : 2\nFormat                                   : AC-3\nFormat/Info                              : Audio Coding 3\nMode extension                           : CM (complete main)\nFormat settings, Endianness              : Big\nCodec ID                                 : A_AC3\nDuration                                 : 1h 38mn\nBit rate mode                            : Constant\nBit rate                                 : 192 Kbps\nChannel(s)                               : 2 channels\nChannel positions                        : Front: L R\nSampling rate                            : 48.0 KHz\nBit depth                                : 16 bits\nCompression mode                         : Lossy\nStream size                              : 136 MiB (10%)\nDefault                                  : Yes\nForced                                   : No\n\n &lt;a href=&quot;\nhttp://s7.directupload.net/images/130222/jvhw2vwq.png&quot; rel=&quot;nofollow&quot; target=&quot;_NEW&quot;&gt;\nhttp://s7.directupload.net/images/130222/jvhw2vwq.png&lt;/a&gt; &lt;a href=&quot;\nhttp://s1.directupload.net/images/130222/c897j5bu.png&quot; rel=&quot;nofollow&quot; target=&quot;_NEW&quot;&gt;\nhttp://s1.directupload.net/images/130222/c897j5bu.png&lt;/a&gt; &lt;a href=&quot;\nhttp://s1.directupload.net/images/130222/b76f6lnd.png&quot; rel=&quot;nofollow&quot; target=&quot;_NEW&quot;&gt;\nhttp://s1.directupload.net/images/130222/b76f6lnd.png&lt;/a&gt; &lt;a href=&quot;\nhttp://s1.directupload.net/images/130222/lg3bag2k.png&quot; rel=&quot;nofollow&quot; target=&quot;_NEW&quot;&gt;\nhttp://s1.directupload.net/images/130222/lg3bag2k.png&lt;/a&gt;","torrent":{"xt":"urn:btih:eb6ef2bed3d976f33da677270b26ed20e86afc25","amp;dn":"Hitchcock+2012+WEBRip+Xvid+AC3-VoXHD","amp;tr":["udp%3A%2F%2Ftracker.openbittorrent.com%3A80","udp%3A%2F%2Fopen.demonii.com%3A1337","udp%3A%2F%2Ftracker.coppersurfer.tk%3A6969","udp%3A%2F%2Fexodus.desync.com%3A6969"],"infoHash":"eb6ef2bed3d976f33da677270b26ed20e86afc25","infoHashBuffer":{"type":"Buffer","data":[235,110,242,190,211,217,118,243,61,166,119,39,11,38,237,32,232,106,252,37]},"announce":[],"urlList":[]}}